<svg width="27" height="26" viewBox="0 0 27 26" fill="none" xmlns="http://www.w3.org/2000/svg">
<g filter="url(#filter0_ii_571_1767)">
<path d="M19.8519 0C16.1913 0 13.2038 2.58098 13.2038 5.74521C13.2038 7.26866 13.9046 8.73054 15.1514 9.80773C16.3979 10.8849 18.0895 11.4901 19.8519 11.4901C21.6147 11.4901 23.3059 10.8849 24.5528 9.80773C25.7992 8.73054 26.5 7.26866 26.5 5.74521C26.5 4.22148 25.7992 2.7596 24.5528 1.68241C23.3059 0.605216 21.6147 0 19.8519 0ZM11.9506 1.25032C6.72846 1.60639 2.63012 5.37035 2.63012 9.96438V16.9998L0.58563 20.7175C0.521561 20.8341 0.492649 20.9628 0.501587 21.0916C0.510526 21.2205 0.557023 21.3453 0.636748 21.4544C0.716473 21.5635 0.826833 21.6534 0.957546 21.7157C1.08826 21.778 1.23507 21.8106 1.38431 21.8106H7.60868C7.76908 24.1439 10.0248 26 12.7664 26C15.5079 26 17.7623 24.1439 17.9237 21.8106H24.1484C24.2976 21.8106 24.4444 21.7779 24.5751 21.7156C24.7057 21.6533 24.816 21.5634 24.8957 21.4543C24.9754 21.3452 25.0219 21.2204 25.0308 21.0916C25.0397 20.9627 25.0108 20.8341 24.9467 20.7175L22.9026 16.9998V13.2431C22.9026 13.1426 22.8797 13.0432 22.8353 12.9504C22.7909 12.8576 22.7257 12.7733 22.6436 12.7023C22.5615 12.6313 22.464 12.5749 22.3568 12.5365C22.2495 12.4981 22.1345 12.4783 22.0184 12.4783C21.9022 12.4783 21.7873 12.4981 21.68 12.5365C21.5727 12.5749 21.4752 12.6313 21.3931 12.7023C21.311 12.7733 21.2459 12.8576 21.2014 12.9504C21.157 13.0432 21.1341 13.1426 21.1341 13.2431V17.1723C21.1345 17.286 21.1642 17.3982 21.221 17.5007L22.7502 20.2814H17.9347L16.1663 20.2811L9.36879 20.2814L7.60033 20.2811L2.78518 20.2814L4.31404 17.5007C4.37085 17.3982 4.40053 17.286 4.40092 17.1723V9.96438C4.40092 6.15332 7.76641 3.07001 12.0923 2.77492C12.3261 2.759 12.543 2.66343 12.6952 2.50923C12.8475 2.35502 12.9228 2.15482 12.9044 1.95264C12.8953 1.85251 12.8634 1.75492 12.8107 1.66543C12.758 1.57593 12.6854 1.49631 12.5971 1.43109C12.5087 1.36587 12.4064 1.31633 12.296 1.28532C12.1855 1.2543 12.0664 1.24241 11.9506 1.25032ZM19.8519 1.52778C21.1468 1.52778 22.3876 1.97201 23.3029 2.76307C24.2182 3.55384 24.7319 4.62554 24.7319 5.74377C24.7319 6.86171 24.2182 7.93341 23.3029 8.72447C22.3876 9.51524 21.1468 9.95947 19.8519 9.95947C18.5573 9.95947 17.3165 9.51524 16.4012 8.72447C15.4859 7.93341 14.9723 6.86171 14.9723 5.74377C14.9723 3.40672 17.1461 1.52778 19.8519 1.52778ZM9.38115 21.8092H16.1512C15.9975 23.3144 14.5609 24.4693 12.7664 24.4693C10.9718 24.4693 9.53487 23.3144 9.38115 21.8092Z" fill="#1D1B20"/>
</g>
<defs>
<filter id="filter0_ii_571_1767" x="-3.5" y="-4" width="34" height="34" filterUnits="userSpaceOnUse" color-interpolation-filters="sRGB">
<feFlood flood-opacity="0" result="BackgroundImageFix"/>
<feBlend mode="normal" in="SourceGraphic" in2="BackgroundImageFix" result="shape"/>
<feColorMatrix in="SourceAlpha" type="matrix" values="0 0 0 0 0 0 0 0 0 0 0 0 0 0 0 0 0 0 127 0" result="hardAlpha"/>
<feOffset dx="-4" dy="-4"/>
<feGaussianBlur stdDeviation="10"/>
<feComposite in2="hardAlpha" operator="arithmetic" k2="-1" k3="1"/>
<feColorMatrix type="matrix" values="0 0 0 0 1 0 0 0 0 0.827451 0 0 0 0 0.172549 0 0 0 0.25 0"/>
<feBlend mode="normal" in2="shape" result="effect1_innerShadow_571_1767"/>
<feColorMatrix in="SourceAlpha" type="matrix" values="0 0 0 0 0 0 0 0 0 0 0 0 0 0 0 0 0 0 127 0" result="hardAlpha"/>
<feOffset dx="4" dy="4"/>
<feGaussianBlur stdDeviation="10"/>
<feComposite in2="hardAlpha" operator="arithmetic" k2="-1" k3="1"/>
<feColorMatrix type="matrix" values="0 0 0 0 1 0 0 0 0 0.827451 0 0 0 0 0.172549 0 0 0 0.4 0"/>
<feBlend mode="normal" in2="effect1_innerShadow_571_1767" result="effect2_innerShadow_571_1767"/>
</filter>
</defs>
</svg>
